<?xml version="1.0" standalone="no"?>
<!DOCTYPE svg PUBLIC "-//W3C//DTD SVG 20010904//EN"
 "http://www.w3.org/TR/2001/REC-SVG-20010904/DTD/svg10.dtd">
<svg version="1.0" xmlns="http://www.w3.org/2000/svg"
 width="1707.000000pt" height="1707.000000pt" viewBox="0 0 1707.000000 1707.000000"
 preserveAspectRatio="xMidYMid meet">
<metadata>
Created by potrace 1.11, written by Peter Selinger 2001-2013
</metadata>
<g transform="translate(0.000000,1707.000000) scale(0.100000,-0.100000)"
fill="#000000" stroke="none">
<path d="M12145 14555 c-137 -29 -294 -99 -402 -179 -57 -42 -67 -54 -113
-151 -27 -57 -50 -110 -50 -116 0 -17 -78 -5 -166 24 -66 22 -73 22 -100 8
-236 -128 -251 -142 -278 -261 -46 -199 -54 -433 -21 -630 39 -235 39 -202 6
-355 -59 -277 -73 -356 -67 -363 14 -13 36 29 71 135 20 62 41 115 45 118 5 3
30 -33 57 -80 50 -92 79 -129 93 -120 4 3 4 22 0 42 -5 21 -11 52 -14 68 -42
246 -42 245 -23 245 6 0 80 -26 162 -59 83 -32 188 -73 235 -91 97 -38 113
-50 104 -74 -12 -32 -52 -47 -534 -204 -350 -114 -396 -135 -565 -265 -107
-83 -155 -127 -155 -142 0 -24 -38 -53 -165 -130 -275 -166 -449 -293 -633
-462 -148 -137 -167 -188 -130 -358 10 -49 35 -164 54 -255 19 -91 37 -174 39
-186 12 -53 71 -241 119 -378 81 -226 84 -237 101 -334 8 -49 29 -123 46 -163
32 -76 45 -120 55 -187 10 -70 36 -147 66 -197 38 -63 142 -166 231 -229 68
-48 70 -49 155 -53 48 -1 103 -7 122 -11 30 -7 39 -5 68 19 26 23 38 27 64 22
30 -6 36 -2 89 57 59 66 62 68 167 69 32 1 32 1 32 50 0 59 -16 81 -120 166
l-70 57 29 34 c24 26 28 40 24 66 -6 40 -17 59 -78 123 -26 28 -74 80 -106
116 -33 37 -75 74 -94 83 -33 16 -40 16 -121 -4 -47 -11 -91 -20 -98 -20 -18
0 -113 194 -130 267 -14 55 -20 102 -31 218 -3 28 -7 68 -10 90 -2 22 -7 76
-10 120 -3 44 -8 94 -10 110 -2 17 -7 65 -10 107 -3 43 -8 86 -9 95 -2 10 -7
43 -11 73 -3 30 -9 63 -11 72 -7 23 79 72 524 300 189 97 218 109 250 104 20
-4 43 -2 51 3 25 16 41 0 77 -73 19 -39 53 -94 76 -123 34 -45 41 -61 45 -115
4 -40 12 -70 23 -83 37 -42 78 -145 105 -264 9 -35 35 -114 60 -176 47 -119
61 -170 71 -257 3 -29 7 -64 10 -78 4 -26 14 -121 18 -180 2 -19 -2 -44 -7
-55 -27 -50 -74 -257 -71 -310 3 -47 -3 -67 -41 -147 -87 -186 -166 -450 -190
-638 -3 -25 -8 -52 -10 -60 -2 -8 -7 -44 -10 -80 -4 -36 -10 -74 -13 -85 -11
-43 -9 -325 4 -423 31 -240 70 -382 105 -382 16 0 11 -17 -35 -127 -56 -135
-85 -197 -186 -408 -34 -71 -91 -195 -127 -275 -108 -241 -182 -388 -214 -419
-63 -63 -232 -133 -355 -146 -32 -4 -77 -11 -99 -17 -22 -5 -47 -11 -55 -13
-8 -2 -35 -8 -60 -14 -25 -7 -55 -14 -67 -16 -65 -15 -301 -100 -337 -122 -22
-14 -94 -66 -158 -115 -65 -49 -161 -112 -215 -142 -54 -29 -128 -69 -165 -90
l-67 -37 -5 33 c-3 18 -8 67 -11 108 -3 41 -8 86 -11 100 -3 14 -7 41 -8 60
-2 19 -8 46 -13 60 -27 69 9 323 70 495 16 45 21 84 22 155 0 93 -1 97 -44
178 -24 45 -66 110 -92 144 -27 33 -49 66 -49 73 0 7 -7 19 -16 26 -18 15
-114 154 -114 165 0 4 -24 35 -52 70 -29 34 -71 84 -93 111 -21 26 -68 73
-103 103 -35 30 -81 72 -103 92 -22 20 -54 47 -72 60 -18 12 -41 31 -52 41
-23 22 -121 92 -169 122 -18 11 -50 33 -72 50 -21 16 -73 47 -114 68 -41 21
-84 47 -96 58 -11 10 -28 19 -37 19 -9 0 -19 5 -22 10 -4 6 -25 19 -48 30 -41
20 -147 114 -147 131 0 5 -10 26 -23 47 -13 20 -31 56 -40 79 -17 44 -49 83
-68 83 -13 0 -5 25 32 107 82 181 98 230 115 373 9 75 34 141 80 213 l44 68
55 -73 c30 -40 55 -75 55 -78 0 -3 10 -10 23 -16 12 -6 47 -24 77 -39 39 -20
72 -29 115 -31 l60 -3 63 65 c34 36 62 71 62 80 0 8 6 17 14 20 7 3 21 23 31
45 10 21 21 39 26 39 4 0 17 20 29 45 12 25 26 45 31 45 6 0 16 15 24 33 7 17
23 42 34 54 12 12 21 26 21 30 0 4 13 28 29 52 16 24 54 94 85 155 49 99 56
120 61 191 10 138 17 180 41 246 8 24 17 52 19 63 3 10 11 29 20 42 20 31 43
132 49 217 4 54 11 78 35 116 20 30 31 61 31 83 0 20 9 66 21 104 24 77 30
155 15 199 -9 27 -42 83 -57 95 -4 3 -9 15 -13 28 -4 12 -13 22 -19 22 -13 0
-137 119 -137 131 0 4 -26 21 -59 38 l-59 30 -32 -32 c-18 -17 -36 -43 -42
-56 -12 -34 -25 -14 -33 54 -10 80 -14 87 -43 83 -21 -2 -32 -14 -49 -48 -27
-57 -29 -109 -3 -157 17 -33 19 -52 15 -143 -3 -58 -10 -126 -16 -152 -9 -41
-7 -61 16 -153 20 -76 26 -121 22 -159 -6 -61 -15 -83 -66 -147 -33 -42 -37
-52 -39 -119 -4 -75 -29 -138 -68 -171 -19 -15 -26 -7 -44 55 -6 22 -16 48
-20 56 -24 43 -70 140 -85 180 -9 25 -22 54 -28 65 -6 11 -12 99 -14 200 -2
99 -5 187 -6 195 -2 8 -7 33 -12 55 -4 22 -19 51 -32 65 -13 14 -40 48 -61 76
-20 28 -59 77 -87 109 -27 31 -54 64 -59 73 -5 9 -18 26 -28 37 -11 11 -34 50
-53 87 -31 62 -33 74 -31 148 2 58 7 85 19 98 20 22 13 32 -19 32 -16 0 -25 7
-29 23 -4 18 -1 446 4 469 0 4 16 2 34 -3 55 -17 130 -30 190 -35 70 -6 113
12 144 59 19 28 21 42 17 113 -5 78 -4 83 20 107 16 16 26 37 26 55 0 16 7 46
15 65 8 20 16 60 18 88 l3 52 54 14 c30 8 59 18 64 23 20 20 4 70 -73 221
l-82 159 31 70 c31 70 33 110 15 200 -56 266 -56 273 -7 304 50 32 83 106 90
201 4 60 1 74 -16 95 l-20 25 -11 -27 c-22 -57 -36 -44 -61 54 -16 63 -27 70
-76 53 -51 -17 -79 -13 -234 35 -164 51 -265 78 -320 85 -82 9 -214 6 -265 -7
-33 -9 -60 -11 -81 -5 -25 7 -37 4 -70 -18 -21 -15 -87 -51 -145 -81 -58 -30
-123 -71 -145 -92 -62 -59 -112 -125 -120 -157 -4 -17 -18 -51 -32 -78 -42
-81 -57 -176 -57 -357 0 -115 0 -116 58 -280 86 -241 98 -287 98 -360 -1 -78
-6 -106 -30 -171 -45 -117 -83 -160 -341 -389 -9 -8 -50 -45 -91 -82 -99 -89
-364 -286 -414 -308 -48 -21 -163 -50 -200 -50 -15 0 -73 -28 -134 -65 -59
-36 -114 -65 -123 -65 -9 0 -19 -4 -22 -9 -9 -14 -165 -91 -186 -91 -10 0 -21
-9 -25 -19 -3 -11 -19 -22 -34 -26 -16 -3 -40 -18 -54 -33 -32 -34 -47 -46
-76 -62 -13 -6 -37 -24 -54 -38 -56 -49 -131 -117 -163 -147 l-31 -30 2 -310
c1 -190 6 -326 13 -350 11 -38 14 -63 27 -215 16 -174 57 -397 91 -494 13 -38
31 -110 39 -159 19 -106 42 -179 61 -190 28 -16 54 -160 59 -326 4 -132 14
-152 86 -187 41 -20 82 -54 64 -54 -4 0 -3 -6 2 -12 6 -7 16 -29 22 -49 6 -20
21 -46 32 -58 11 -12 23 -39 25 -59 5 -38 28 -81 44 -83 6 -1 15 -2 21 -3 13
-1 18 -10 45 -74 19 -47 96 -122 124 -122 10 0 23 7 30 15 17 21 7 116 -18
163 -32 61 -24 89 90 307 10 18 19 49 21 69 4 38 26 74 28 46 6 -125 29 -197
75 -241 30 -28 30 -33 -5 -110 -16 -35 -43 -106 -61 -157 l-32 -94 -3 -257
c-1 -141 -6 -277 -10 -301 -8 -51 -28 -82 -96 -155 -25 -27 -61 -67 -78 -87
-18 -20 -41 -40 -52 -43 -10 -4 -40 -36 -66 -73 -25 -37 -59 -80 -75 -97 -31
-33 -79 -101 -130 -182 -18 -29 -46 -60 -63 -69 -16 -9 -50 -43 -75 -76 -25
-33 -60 -77 -77 -97 -18 -20 -33 -42 -33 -49 0 -7 -10 -23 -22 -36 -13 -13
-35 -36 -49 -52 -14 -17 -47 -43 -72 -60 -26 -16 -47 -34 -47 -41 0 -6 23 -38
50 -69 53 -61 60 -85 34 -124 -30 -44 -110 -115 -160 -140 -43 -22 -62 -25
-159 -25 -99 0 -163 5 -235 20 -30 6 -123 22 -165 29 -37 6 -103 14 -178 21
-33 3 -73 13 -90 22 -49 26 -111 20 -227 -21 -58 -20 -127 -43 -155 -51 -27
-8 -66 -23 -85 -34 -19 -10 -75 -31 -125 -45 -49 -15 -103 -31 -120 -37 -16
-6 -45 -15 -64 -21 -19 -5 -44 -16 -55 -23 -12 -8 -59 -25 -106 -39 -47 -13
-116 -37 -155 -51 -38 -15 -83 -31 -100 -37 -125 -39 -327 -46 -351 -13 -7 10
-11 22 -8 26 14 22 -223 268 -260 269 -10 0 -46 39 -46 50 0 5 -11 11 -24 14
-13 3 -54 31 -91 61 -62 50 -113 75 -157 75 -29 0 -67 -22 -74 -43 -3 -10 -34
-55 -68 -99 -33 -44 -70 -94 -80 -112 -64 -102 -129 -196 -137 -196 -5 0 -9
-7 -9 -16 0 -24 -70 -133 -112 -176 -21 -20 -38 -43 -38 -51 0 -7 -11 -29 -25
-48 -15 -19 -50 -79 -80 -135 -30 -56 -61 -107 -70 -114 -8 -7 -15 -18 -15
-25 0 -8 -7 -26 -14 -42 -8 -15 -29 -59 -46 -98 -17 -38 -44 -91 -61 -116 -16
-25 -29 -55 -29 -66 0 -18 -28 -78 -86 -185 -18 -32 -25 -164 -12 -194 12 -27
69 -54 111 -54 50 0 115 47 255 185 91 90 133 125 150 125 29 0 82 24 109 49
11 10 35 22 54 26 18 4 40 11 49 16 23 12 82 36 115 46 17 5 67 8 113 6 102
-5 139 6 186 57 49 53 82 69 156 73 56 3 64 6 76 30 15 28 88 66 139 72 44 6
280 64 353 87 123 38 234 46 642 42 212 -2 401 -5 420 -8 19 -2 78 -7 130 -10
53 -4 106 -8 119 -11 12 -2 62 -7 109 -10 48 -4 101 -8 117 -10 17 -3 68 -7
115 -10 47 -3 101 -8 120 -10 19 -3 64 -7 100 -10 75 -6 147 -12 245 -21 170
-16 260 -8 322 28 48 28 173 119 238 173 61 52 79 61 141 76 68 15 66 15 98
28 39 16 25 26 -32 22 l-47 -2 98 93 c53 51 97 98 97 104 0 13 38 29 89 38 35
6 43 13 236 192 133 123 109 100 318 316 182 188 196 203 212 228 6 9 19 30
30 48 11 18 27 34 36 37 9 3 33 34 54 69 51 87 191 273 216 286 16 9 32 6 82
-18 34 -16 76 -41 92 -56 17 -14 34 -26 38 -26 9 0 219 -141 321 -214 33 -24
76 -49 95 -56 20 -7 38 -16 41 -20 3 -4 28 -19 55 -35 28 -16 59 -36 70 -45
11 -9 48 -29 82 -44 60 -28 63 -29 88 -12 22 14 32 15 63 6 56 -18 364 -170
387 -192 11 -10 40 -32 64 -47 51 -33 48 -13 35 -246 -14 -242 -9 -669 9 -765
8 -47 19 -95 22 -107 7 -21 4 -23 -30 -23 -52 0 -184 48 -210 76 -25 27 -65
44 -102 44 -46 0 -94 -32 -148 -99 -70 -87 -74 -114 -80 -506 -3 -211 -8 -278
-24 -350 -26 -122 -30 -165 -37 -431 l-5 -231 44 -101 c46 -105 98 -199 145
-267 21 -31 35 -41 61 -43 44 -4 70 15 124 91 51 72 52 76 62 277 9 174 20
276 36 316 7 21 38 52 113 117 12 10 44 40 71 65 115 108 204 182 208 175 8
-13 1 -468 -7 -481 -4 -7 -16 -57 -27 -113 -14 -72 -32 -127 -63 -188 -24 -48
-46 -99 -49 -112 -3 -13 -17 -51 -31 -85 -18 -42 -27 -87 -31 -144 -4 -56 -12
-93 -24 -114 -11 -17 -24 -51 -31 -75 -10 -37 -9 -51 5 -87 16 -42 35 -59 97
-84 14 -6 29 -18 32 -25 4 -11 -68 -152 -87 -172 -3 -2 -13 20 -22 49 -24 74
-35 81 -36 25 -1 -26 -3 -51 -4 -57 -1 -5 -3 -21 -4 -35 -1 -17 -9 -29 -23
-34 -29 -11 -34 -3 -37 61 -1 29 -6 59 -11 67 -7 13 -10 12 -18 -9 -5 -14 -12
-34 -15 -45 -3 -13 -5 -8 -6 13 -1 48 -22 36 -37 -22 -23 -91 -63 -97 -58 -9
9 165 14 221 20 236 6 18 -10 24 -21 8 -3 -5 -10 -33 -15 -62 -6 -29 -17 -66
-25 -82 -8 -17 -15 -37 -15 -45 0 -17 -51 -102 -61 -102 -11 0 -17 59 -18 184
-1 120 -7 151 -22 124 -10 -17 -16 -73 -24 -202 -6 -105 -12 -133 -30 -140
-28 -10 -35 24 -40 195 -3 96 -7 183 -9 194 -3 11 -5 28 -5 38 -1 28 -18 11
-24 -25 -3 -18 -9 -69 -13 -113 -3 -44 -10 -89 -14 -100 -7 -19 -7 -19 -18 1
-10 18 -18 74 -21 138 -1 11 -4 16 -8 13 -4 -4 -8 -65 -10 -135 -3 -148 -10
-212 -24 -212 -5 0 -9 8 -10 18 0 9 -2 28 -4 42 -1 14 -6 73 -10 133 -4 59 -8
115 -10 125 -2 9 -4 23 -4 30 -1 6 -6 11 -13 10 -26 -6 -39 126 -13 136 24 9
17 38 -20 85 -19 24 -36 49 -36 55 -5 42 -8 56 -18 93 -6 23 -17 45 -23 49 -8
5 -9 -1 -3 -22 11 -37 15 -104 9 -126 -3 -10 -12 -18 -20 -18 -12 0 -10 -7 8
-32 32 -45 35 -151 7 -245 -43 -146 -45 -153 -53 -218 -15 -107 -41 -99 -49
15 -3 41 -8 84 -10 95 -3 11 -8 40 -12 65 -3 25 -11 63 -17 85 -17 65 -23 21
-22 -160 1 -91 -3 -165 -7 -165 -8 0 -19 35 -39 124 -16 72 -49 124 -42 65 15
-118 20 -254 9 -265 -11 -11 -52 15 -69 44 -17 29 -43 129 -53 206 -11 81 -24
100 -25 36 -1 -72 -8 -100 -26 -93 -19 7 -18 -21 1 -51 18 -27 25 -119 10
-124 -5 -2 -26 43 -46 101 -33 94 -35 109 -24 131 8 14 10 28 5 31 -9 6 -41
-34 -80 -98 -12 -21 -27 -36 -33 -34 -5 1 -17 25 -26 53 -14 45 -16 46 -18 19
-2 -16 -4 -75 -5 -130 -3 -98 -3 -100 -30 -109 -34 -12 -36 -10 -43 40 -15
109 -27 175 -32 171 -2 -3 -7 -29 -10 -58 -12 -126 -36 -161 -48 -69 -19 158
-23 176 -37 162 -5 -5 -12 -59 -15 -118 -6 -119 -15 -154 -37 -154 -30 0 -38
39 -34 172 2 71 1 131 -3 133 -3 3 -16 -19 -28 -47 -25 -59 -27 -58 -84 27
-44 67 -57 68 -58 8 0 -78 -10 -130 -30 -170 -10 -20 -19 -48 -19 -61 0 -15
-5 -22 -12 -19 -7 2 -12 15 -10 28 6 41 30 153 37 171 5 13 2 18 -9 18 -13 0
-16 12 -16 65 0 111 -29 77 -45 -55 -11 -85 -17 -105 -56 -187 -38 -80 -58
-102 -60 -65 -1 9 -2 79 -3 154 -2 140 -10 181 -21 112 -3 -22 -11 -47 -16
-57 -5 -10 -12 -37 -14 -59 -3 -22 -7 -43 -10 -46 -6 -6 -7 39 -6 255 0 93 -3
153 -9 153 -6 0 -10 -3 -11 -7 0 -5 -3 -17 -5 -28 -8 -33 -14 -68 -29 -180 -3
-16 -7 -82 -11 -145 -4 -63 -8 -122 -10 -130 -1 -8 -3 -19 -4 -25 -3 -30 -22
35 -27 93 -3 37 -21 128 -41 202 -34 131 -35 140 -33 303 1 163 -9 239 -24
172 -4 -17 -9 -36 -11 -44 -7 -23 -23 -148 -30 -231 -6 -84 -14 -114 -27 -101
-17 17 -27 13 -26 -11 3 -66 -13 -254 -25 -300 l-15 -53 -1 70 c-2 98 -8 286
-9 310 -3 41 -29 -14 -42 -88 l-13 -72 -17 100 c-9 55 -20 114 -25 130 -8 29
-8 29 -14 6 -3 -13 -5 -57 -5 -97 1 -78 2 -77 -46 -34 -64 59 -189 141 -201
134 -9 -6 4 -33 24 -56 7 -8 33 -35 58 -61 l44 -47 1 -115 c0 -63 -3 -115 -7
-115 -11 0 -68 77 -83 114 -8 19 -22 77 -31 128 -15 89 -33 135 -35 93 -8
-114 -3 -188 15 -265 7 -28 8 -184 2 -215 -3 -11 -5 -22 -5 -25 -1 -2 -5 0
-10 5 -6 6 -17 54 -25 108 -17 100 -44 185 -45 140 -1 -32 -16 -29 -19 4 -1
15 -6 31 -11 36 -5 5 -7 15 -5 22 3 7 1 16 -5 20 -12 7 -12 5 -16 -195 -4
-163 -1 -149 -22 -145 -10 2 -23 4 -29 4 -22 2 -31 128 -21 277 2 23 0 50 -4
60 -6 16 -9 13 -23 -18 -9 -21 -16 -46 -16 -57 0 -39 -20 -31 -49 21 -41 74
-60 98 -75 98 -11 0 -12 -8 -4 -40 9 -33 7 -50 -10 -98 -12 -31 -28 -86 -36
-121 -8 -35 -20 -69 -25 -74 -18 -18 -13 69 8 153 18 73 18 76 0 93 -10 9 -16
23 -14 30 10 29 12 88 4 93 -11 6 -25 -28 -33 -79 -3 -20 -9 -54 -12 -74 -6
-40 -30 -103 -38 -103 -2 0 -18 21 -35 46 -24 35 -31 57 -32 99 -1 29 -5 59
-10 67 -7 10 -9 10 -9 -2 0 -8 -7 -28 -15 -43 -8 -16 -17 -54 -21 -85 -14
-134 -22 -54 -23 227 -2 291 -10 399 -24 306 -11 -68 -16 -117 -22 -205 -9
-132 -15 -179 -35 -260 -10 -41 -21 -93 -25 -115 -21 -145 -36 -205 -50 -205
-3 0 -4 106 -2 235 2 129 0 235 -5 235 -4 0 -8 -3 -9 -7 -4 -53 -12 -100 -19
-112 -4 -9 -11 -40 -15 -70 -4 -30 -8 -62 -10 -72 -2 -9 -6 -39 -10 -66 -10
-74 -15 -88 -26 -72 -25 38 -40 128 -44 255 -2 75 -9 142 -14 147 -13 13 -19
-16 -25 -115 -6 -92 -10 -102 -37 -87 -31 16 -33 6 -8 -47 22 -50 28 -83 32
-192 3 -65 -9 -90 -37 -79 -20 8 -28 78 -31 282 -6 314 -7 336 -18 332 -17 -5
-26 -53 -32 -165 -6 -117 -19 -160 -29 -96 -3 21 -8 59 -11 84 -3 24 -10 61
-16 82 -16 61 -39 46 -33 -22 9 -112 12 -460 3 -460 -5 0 -9 12 -10 28 0 15
-2 34 -3 42 -3 14 -8 78 -22 304 -3 55 -8 107 -9 115 -2 9 -4 22 -4 30 -2 33
-15 -3 -18 -51 -1 -28 -5 -53 -7 -55 -2 -2 -11 27 -20 64 -40 162 -59 223 -68
223 -7 0 -8 -32 -3 -92 10 -131 9 -133 -14 -183 -12 -25 -24 -61 -27 -80 -3
-20 -12 -51 -20 -70 -8 -19 -14 -47 -14 -63 0 -15 -4 -32 -9 -37 -12 -13 -19
-63 -22 -145 -2 -65 -13 -95 -31 -84 -5 3 -9 47 -8 97 2 145 1 152 -11 140 -6
-6 -13 -30 -15 -53 -2 -23 -9 -50 -14 -60 -6 -10 -10 -33 -10 -51 0 -49 -12
-27 -17 33 -5 51 -12 92 -30 168 -15 59 -25 17 -29 -113 -1 -67 -3 -132 -3
-144 -1 -19 -7 -23 -36 -23 -30 0 -35 3 -36 25 -1 14 -2 28 -3 33 -2 4 -6 38
-10 75 -5 37 -11 65 -14 62 -3 -3 -6 -35 -8 -71 -4 -127 -20 -162 -68 -150
-27 7 -41 39 -50 116 -8 66 -29 140 -38 140 -5 0 -9 -42 -8 -93 2 -166 2 -167
-20 -167 -37 0 -50 45 -65 235 -7 80 -15 137 -21 147 -3 4 -7 49 -10 100 -3
51 -7 94 -9 96 -2 2 -20 -13 -41 -35 -41 -42 -73 -104 -74 -143 0 -31 -9 -44
-37 -59 -19 -9 -22 -19 -21 -56 3 -49 0 -53 -28 -58 -36 -5 -44 -18 -44 -67 0
-46 -2 -50 -44 -78 -48 -33 -64 -25 -40 19 38 68 -1 72 -41 4 -36 -62 -47 -65
-40 -13 3 23 7 61 10 83 11 91 18 125 26 125 5 0 9 -4 9 -9 0 -5 17 -4 40 1
22 6 40 14 40 19 0 5 9 9 20 9 11 0 20 5 20 10 0 6 6 10 14 10 17 0 43 54 52
108 4 23 10 42 15 42 5 0 9 7 9 15 0 8 8 15 18 15 16 1 16 1 0 14 -22 16 -23
26 -2 26 13 0 12 4 -5 26 -11 14 -17 32 -14 40 7 18 -37 104 -53 104 -6 0 -24
10 -39 22 -15 12 -35 22 -44 23 -9 0 -28 9 -44 19 -22 15 -30 16 -43 5 -13
-10 -17 -10 -24 0 -6 11 -8 11 -12 0 -3 -9 -19 -12 -46 -11 -33 2 -42 -1 -42
-13 0 -8 -11 -20 -25 -25 -14 -5 -31 -24 -39 -43 -8 -19 -19 -38 -25 -41 -6
-4 -11 -17 -11 -28 0 -12 -7 -29 -16 -39 -11 -12 -14 -24 -8 -36 8 -18 13 -52
15 -109 1 -19 13 -45 30 -65 16 -19 29 -40 29 -47 0 -6 21 -18 47 -25 36 -9
49 -18 58 -42 7 -16 12 -38 10 -50 -2 -11 -6 -41 -10 -67 -3 -27 -11 -48 -16
-48 -5 0 -9 6 -8 13 4 29 -2 42 -11 22 -4 -11 -6 -47 -3 -80 6 -75 6 -68 4
-83 -1 -9 -13 -12 -39 -10 -37 3 -37 3 -40 53 -4 66 -18 78 -27 23 -9 -56 -18
-69 -25 -39 -8 36 -30 39 -30 4 0 -35 -22 -69 -39 -59 -8 5 -11 54 -10 168 0
88 -1 162 -4 164 -3 3 -8 -19 -12 -48 -4 -29 -11 -57 -15 -63 -4 -5 -11 -32
-14 -60 -5 -31 -21 -74 -44 -112 -20 -34 -38 -60 -39 -59 -2 1 -10 212 -12
299 -1 20 -5 37 -10 37 -13 0 -21 -40 -28 -138 -3 -48 -7 -94 -9 -102 -1 -8
-3 -27 -3 -42 -1 -16 -11 -38 -22 -49 -20 -20 -22 -20 -31 -4 -6 9 -12 97 -14
194 -4 182 -8 221 -23 221 -14 0 -21 -43 -27 -168 -4 -64 -8 -119 -10 -121 -3
-3 -9 0 -14 5 -10 10 -15 38 -25 124 -9 86 -16 111 -28 107 -13 -4 -14 -42 -3
-92 18 -83 2 -304 -20 -282 -5 5 -11 66 -19 186 -2 47 -8 107 -11 134 -6 45
-8 48 -20 32 -11 -14 -14 -15 -15 -4 0 8 -2 25 -4 39 -2 14 -6 43 -9 65 -4 39
-37 181 -60 260 -6 22 -15 38 -21 35 -5 -3 -9 -7 -8 -10 8 -25 24 -193 28
-290 2 -57 -1 -96 -11 -118 -27 -64 -74 -243 -74 -280 0 -41 -19 -83 -21 -47
-6 97 -10 133 -18 150 -6 11 -12 45 -15 75 -14 152 -19 185 -26 204 -11 26
-10 30 -15 -224 -3 -213 -3 -215 -10 -208 -6 6 -11 27 -25 103 -16 92 -23 119
-37 145 -16 31 -16 30 -13 -143 1 -109 -1 -128 -15 -133 -26 -10 -51 22 -74
94 -20 65 -26 94 -41 197 -2 11 -6 -9 -9 -45 -6 -60 -8 -65 -28 -63 -28 3 -28
-3 -3 -59 24 -55 34 -114 21 -122 -14 -9 -38 31 -52 89 -6 28 -16 54 -20 60
-12 12 -12 72 0 79 11 7 21 56 10 56 -13 0 -75 -78 -95 -120 -10 -22 -24 -40
-30 -40 -6 0 -17 27 -23 59 -7 37 -18 61 -27 65 -14 5 -15 1 -10 -27 11 -57 8
-204 -4 -226 -24 -45 -69 -12 -71 52 -1 39 -2 58 -8 142 -2 28 -3 27 -17 -15
-14 -44 -24 -105 -33 -187 0 -7 -10 -13 -21 -13 -15 0 -21 9 -26 41 l-7 40
-18 -41 c-27 -59 -43 -61 -95 -6 -57 59 -83 63 -55 7 22 -43 20 -51 -19 -51
-39 0 -50 18 -50 82 0 32 -4 58 -10 58 -5 0 -10 -6 -11 -12 -1 -49 -13 -105
-23 -115 -10 -12 -49 -18 -87 -14 -25 2 -30 26 -12 61 12 24 13 34 3 43 -16
16 -37 -13 -45 -64 -7 -41 -21 -57 -36 -42 -5 5 -11 73 -13 151 -1 78 -6 145
-9 149 -6 5 -12 -37 -8 -59 0 -4 -5 -25 -13 -45 -8 -21 -16 -71 -19 -111 -4
-74 -23 -112 -46 -98 -6 4 -22 43 -36 87 -14 45 -30 90 -36 101 -7 13 -11 90
-11 207 1 176 0 184 -14 146 -14 -37 -26 -89 -39 -160 -3 -16 -8 -70 -12 -118
-4 -61 -9 -85 -17 -77 -14 14 -23 13 -23 -2 -7 -112 -22 -208 -33 -208 -11 0
-16 26 -19 91 -1 31 -4 64 -6 75 -2 10 -4 29 -4 42 -2 45 -18 12 -25 -50 -4
-35 -8 -72 -10 -83 -2 -11 -4 -29 -5 -39 0 -11 -3 -17 -6 -14 -8 8 -12 33 -19
118 -11 116 -17 154 -26 164 -16 16 -20 -15 -23 -164 l-2 -144 -27 -1 c-41 -3
-46 5 -53 80 -12 142 -29 148 -40 15 -7 -96 -8 -98 -41 -110 -21 -8 -24 -16
-24 -65 l0 -55 8535 0 8536 0 -2 498 c-1 396 -4 507 -16 547 -19 70 -30 121
-38 185 -4 30 -8 57 -10 58 -4 4 -14 -60 -20 -122 -3 -38 -18 -65 -28 -49 -2
4 -8 33 -11 63 -8 70 -24 127 -36 135 -6 3 -10 -4 -11 -17 -7 -171 -9 -215
-14 -225 -2 -7 -17 -13 -32 -13 l-29 0 3 145 c3 139 -1 180 -16 171 -4 -3 -13
-34 -21 -70 -15 -75 -25 -75 -65 3 -13 25 -34 59 -48 74 l-24 29 -5 -99 c-4
-75 -10 -107 -26 -138 -12 -22 -22 -51 -22 -64 0 -19 -3 -22 -12 -13 -9 9 -8
32 6 103 11 61 14 95 7 103 -5 6 -11 40 -12 74 -2 58 -11 83 -22 65 -6 -9 -13
-54 -23 -138 -7 -64 -30 -131 -71 -207 -44 -81 -45 -80 -44 150 0 72 -4 132
-9 132 -10 0 -27 -57 -36 -122 -15 -106 -23 -70 -24 112 0 187 -10 262 -25
194 -4 -16 -9 -36 -11 -44 -2 -8 -6 -42 -9 -75 -4 -33 -8 -76 -10 -95 -3 -19
-7 -82 -10 -140 -3 -58 -8 -116 -11 -129 -8 -39 -22 -11 -28 58 -10 104 -16
131 -43 226 -35 126 -34 118 -33 245 1 63 2 143 2 178 1 59 -5 82 -18 70 -3
-4 -14 -59 -25 -125 -11 -65 -24 -126 -29 -135 -5 -9 -10 -40 -11 -67 -2 -55
-6 -65 -29 -73 -10 -4 -17 -21 -18 -44 -6 -79 -33 -64 -37 20 -4 84 -5 87 -15
81 -6 -4 -8 -11 -4 -16 3 -5 1 -15 -5 -22 -8 -11 -15 -43 -20 -99 -2 -17 -21
-7 -21 10 0 10 -5 23 -10 28 -6 6 -13 33 -17 60 -8 73 -9 73 -16 80 -4 4 -7
-13 -8 -37 0 -24 -2 -73 -2 -109 l-2 -64 -38 -9 c-21 -5 -41 -7 -44 -3 -3 3
-11 27 -18 53 l-12 47 -7 -48 c-4 -27 -10 -55 -13 -62 -14 -36 -102 6 -104 49
0 12 -9 45 -19 72 l-18 50 -2 -42 c-2 -39 -6 -74 -9 -89 -1 -7 -411 204 -435
225 -16 14 -63 83 -123 181 -21 33 -24 34 -83 35 -53 0 -64 3 -80 25 -31 39
-103 185 -145 290 -20 52 -41 104 -46 115 -35 84 -149 458 -170 555 -5 25 -12
56 -15 70 -9 44 -43 233 -49 275 -3 22 -15 103 -25 180 -11 77 -27 176 -35
220 -51 287 -77 592 -55 650 5 14 12 36 14 48 20 96 23 122 20 162 -8 98 -50
159 -169 246 -60 43 -97 79 -126 123 -58 85 -133 172 -199 230 -30 26 -208
162 -395 302 -521 389 -511 380 -548 519 -24 91 -45 120 -92 128 -48 8 -124
40 -167 72 -43 31 -47 39 -44 68 2 17 7 61 11 97 13 126 46 264 77 323 29 54
31 64 29 150 -6 207 0 405 14 427 2 3 6 30 9 60 4 30 8 71 11 90 3 19 7 60 11
90 3 30 7 66 9 80 2 14 6 50 10 80 4 30 8 66 10 80 2 14 6 43 9 65 3 22 13 90
22 150 9 61 17 124 19 140 3 31 15 116 21 150 2 11 6 43 9 70 3 28 7 59 9 70
2 11 7 43 11 70 6 43 12 54 45 78 21 15 43 27 48 27 15 0 36 -37 82 -150 86
-211 97 -226 235 -316 33 -21 63 -43 66 -48 4 -5 75 -9 159 -10 l152 -1 146
61 c182 75 223 96 289 145 60 45 69 47 178 49 l80 1 73 87 c39 48 87 111 106
141 l33 53 -13 64 c-15 72 -21 105 -35 183 -7 46 -16 63 -56 104 -65 67 -191
167 -210 167 -9 0 -27 12 -40 26 -29 32 -58 27 -117 -19 -59 -46 -68 -59 -137
-197 -47 -93 -64 -139 -67 -178 -6 -67 -11 -69 -161 -71 -90 -2 -118 1 -138
14 -16 11 -44 57 -75 123 -79 170 -157 321 -246 478 l-52 90 20 59 c11 32 20
66 20 77 0 10 -33 85 -74 166 -40 81 -83 177 -95 214 l-22 66 -167 95 c-92 52
-234 132 -316 176 -215 118 -239 143 -111 114 92 -20 218 -27 244 -14 30 16
61 70 61 105 0 20 11 39 40 65 42 39 47 55 29 95 -10 20 -9 30 4 50 9 13 27
62 40 109 16 57 37 102 62 137 32 44 36 54 26 73 -6 12 -24 46 -40 75 -25 47
-27 59 -19 94 5 22 14 50 20 61 17 32 13 307 -6 407 -8 47 -18 123 -22 170 -9
123 -36 202 -81 239 -66 55 -99 65 -248 75 -51 4 -64 9 -83 33 -111 133 -124
140 -248 142 -54 1 -100 3 -103 5 -3 2 -33 -2 -66 -9z m-634 -745 c1 -14 -1
-81 -6 -150 -4 -77 -3 -135 3 -150 10 -26 45 -62 132 -139 25 -22 42 -42 38
-46 -14 -15 -54 10 -112 70 -78 80 -138 212 -144 317 -6 94 1 116 41 126 37
11 46 5 48 -28z m-5546 -2540 c3 -5 15 -60 25 -120 10 -61 23 -125 29 -143 27
-90 35 -137 46 -267 7 -84 13 -128 19 -139 10 -15 20 -231 18 -356 -4 -217 -4
-239 1 -391 3 -83 3 -163 0 -178 -6 -31 -32 -46 -124 -70 -66 -17 -139 -65
-139 -90 0 -7 -11 -23 -25 -36 -14 -13 -25 -28 -25 -33 0 -5 -8 -21 -19 -35
-10 -15 -26 -51 -35 -79 -10 -29 -22 -53 -27 -53 -19 0 -39 69 -47 163 l-9 95
-61 83 c-33 46 -77 116 -99 156 -21 39 -58 105 -82 145 -24 40 -49 96 -57 123
-25 90 -62 269 -69 330 -3 33 -11 76 -17 95 -15 43 -15 314 -1 332 12 16 22
69 28 163 8 99 14 157 17 160 3 3 221 53 268 61 67 13 115 26 163 44 28 11 61
20 72 21 11 0 36 6 55 13 43 17 87 19 95 6z m6301 -3867 c145 -120 279 -216
474 -335 91 -56 233 -145 315 -198 83 -53 185 -114 228 -135 43 -22 94 -56
114 -75 37 -36 132 -173 134 -194 1 -6 2 -29 4 -51 11 -174 16 -246 20 -285 3
-25 7 -70 10 -100 5 -50 21 -176 30 -225 12 -72 41 -172 77 -263 55 -143 318
-662 544 -1073 94 -171 112 -215 128 -314 14 -88 14 -91 -6 -119 -15 -21 -21
-43 -19 -73 0 -25 -3 -42 -8 -39 -5 3 -8 17 -8 30 0 13 -8 48 -17 77 -8 30
-20 73 -26 97 -6 24 -15 40 -21 36 -13 -8 -10 -155 4 -172 7 -9 6 -21 -3 -40
-14 -30 -60 -159 -64 -182 -2 -8 -7 -35 -11 -60 -4 -25 -12 -54 -17 -64 -6
-10 -12 -64 -14 -119 -2 -72 -7 -105 -18 -115 -13 -13 -16 -12 -21 10 -4 14
-5 73 -2 132 6 158 -30 120 -48 -50 -4 -38 -8 -70 -10 -72 -1 -1 -8 35 -14 80
-7 46 -15 97 -18 113 -2 17 -7 45 -10 63 -3 17 -9 32 -14 32 -10 0 -12 -18
-14 -185 l-1 -120 -39 0 c-38 0 -40 1 -42 35 -1 19 -5 53 -7 75 -3 22 -5 52
-5 68 -1 15 -4 27 -9 27 -4 0 -7 -38 -8 -84 0 -92 -16 -142 -46 -152 -41 -13
-64 29 -72 130 -3 27 -9 53 -15 59 -6 6 -11 23 -11 38 0 15 -5 31 -11 34 -7 5
-9 -32 -6 -118 2 -69 1 -131 -3 -138 -5 -7 -18 -9 -33 -5 -25 6 -30 21 -43
121 -2 17 -6 45 -9 63 -11 71 -19 170 -19 246 l-1 79 32 16 c43 21 43 42 0 39
-18 -1 -38 2 -45 6 -7 4 -25 -4 -45 -20 -36 -30 -87 -54 -114 -54 -17 1 -16 2
1 15 11 8 14 15 8 15 -19 0 -14 30 6 30 16 1 16 2 -2 15 -10 8 -18 26 -18 41
0 44 -39 107 -77 125 -18 8 -38 23 -43 33 -9 16 -11 16 -24 -1 -13 -17 -14
-17 -20 5 -5 18 -13 22 -50 22 -23 0 -46 -5 -50 -11 -6 -11 -32 -9 -68 6 -15
7 -18 5 -13 -8 4 -11 -5 -22 -29 -36 -19 -11 -34 -27 -34 -35 0 -8 -10 -27
-23 -43 -13 -15 -22 -35 -22 -43 1 -8 -5 -23 -13 -33 -12 -14 -13 -22 -4 -43
7 -13 12 -52 12 -84 0 -49 3 -61 20 -70 11 -6 20 -16 20 -22 0 -6 14 -24 32
-40 29 -26 42 -32 60 -29 4 0 15 -10 24 -24 13 -20 15 -39 10 -92 -7 -75 -11
-84 -21 -52 -12 38 -25 0 -25 -78 0 -53 -4 -76 -16 -88 -24 -23 -42 -2 -49 55
-7 58 -21 71 -30 28 -11 -57 -16 -68 -26 -62 -6 3 -8 12 -6 18 3 7 1 19 -3 26
-6 10 -10 6 -15 -16 -11 -49 -25 -76 -38 -71 -9 3 -12 46 -14 158 -1 85 -2
161 -3 169 -2 15 -24 -70 -40 -151 -15 -79 -77 -185 -97 -165 -4 4 -8 71 -9
149 -1 78 -3 151 -4 162 -4 35 -18 -45 -24 -135 -11 -159 -22 -200 -55 -200
-11 0 -22 8 -26 18 -4 9 -9 98 -12 197 -2 98 -8 186 -13 195 -5 8 -10 11 -11
5 0 -5 -3 -26 -5 -45 -3 -19 -7 -71 -9 -115 -2 -44 -7 -90 -10 -102 -6 -27
-25 -31 -26 -5 0 9 -2 28 -4 42 -2 14 -4 59 -6 100 -3 119 -11 136 -70 157
-53 19 -75 43 -84 90 -2 15 -7 39 -10 53 -3 14 -8 39 -10 55 -10 58 -22 90
-31 85 -10 -6 -11 -87 -1 -180 19 -176 19 -198 4 -227 -16 -30 -50 -129 -62
-178 -6 -26 -9 -48 -20 -120 -1 -11 -3 -24 -4 -28 0 -5 -5 -6 -10 -3 -4 3 -8
29 -8 58 -1 29 -6 71 -11 93 -6 22 -13 65 -16 95 -13 142 -24 200 -36 200 -11
0 -15 -63 -15 -254 0 -168 -7 -210 -19 -113 -9 66 -36 166 -48 173 -4 3 -7
-50 -6 -118 2 -182 -11 -205 -71 -121 -16 23 -28 69 -43 155 -24 148 -41 177
-36 63 3 -78 2 -80 -19 -77 -28 4 -28 6 3 -73 26 -63 27 -121 3 -113 -6 2 -24
45 -42 96 -28 83 -30 97 -20 135 6 23 9 44 6 47 -2 3 -20 -13 -39 -35 -50 -58
-54 -63 -54 -78 0 -7 -6 -22 -14 -32 -13 -18 -14 -18 -24 1 -5 10 -10 22 -10
27 -1 30 -15 87 -23 87 -11 0 -12 -17 -10 -157 l2 -113 -33 4 c-18 2 -35 4
-38 5 -3 0 -7 43 -8 94 -2 93 -7 135 -17 145 -3 3 -5 -5 -5 -17 0 -12 -4 -30
-9 -39 -5 -9 -11 -47 -14 -84 -6 -73 -20 -108 -42 -108 -15 0 -16 3 -19 39 -2
33 -13 33 -26 1 -24 -59 -65 -61 -99 -6 -11 18 -30 41 -42 52 l-22 19 6 -31
c3 -18 9 -43 13 -58 6 -24 3 -26 -22 -26 -43 0 -49 9 -52 75 -2 33 -5 61 -6
63 -8 8 -34 -48 -37 -79 -2 -19 -7 -40 -12 -46 -11 -15 -93 -17 -102 -3 -3 5
1 25 9 44 12 29 12 37 1 52 -12 17 -15 12 -32 -46 -19 -64 -35 -84 -46 -55 -4
8 -7 70 -8 137 -1 68 -5 132 -9 143 l-7 20 -6 -20 c-8 -25 -14 -64 -22 -140
-11 -115 -18 -146 -33 -161 -18 -18 -31 -8 -38 31 -3 15 -10 37 -16 49 -38 70
-48 140 -45 314 1 94 0 172 -3 172 -11 0 -43 -109 -54 -180 -3 -19 -8 -73 -12
-120 -6 -90 -10 -103 -23 -81 -10 16 -18 -13 -27 -103 -10 -100 -16 -118 -33
-100 -5 5 -12 56 -15 114 -3 58 -6 110 -6 115 -1 6 -7 -8 -13 -29 -7 -22 -18
-41 -25 -44 -14 -4 -32 37 -32 73 0 28 -20 75 -32 75 -4 0 -8 -16 -8 -36 0
-42 12 -47 -120 54 -45 34 -90 62 -101 62 -18 0 -18 -3 9 -42 27 -40 63 -74
167 -163 40 -33 40 -34 40 -106 0 -70 -1 -73 -27 -80 -37 -10 -44 3 -51 83 -4
37 -13 80 -21 95 l-15 28 -2 -40 c-5 -165 -12 -188 -50 -178 -31 8 -48 42 -64
129 -20 104 -23 113 -35 94 -13 -21 -12 -115 2 -162 12 -42 6 -56 -30 -63 -29
-5 -42 15 -48 72 -7 60 -31 103 -70 123 -16 8 -32 19 -35 23 -3 4 -39 16 -80
26 -41 10 -110 36 -154 56 -44 21 -97 44 -118 51 -22 8 -48 25 -59 39 -11 14
-25 25 -32 25 -18 0 -46 37 -52 69 -4 21 -11 27 -23 24 -18 -5 -104 65 -123
101 -6 11 -13 44 -14 71 -1 28 -3 55 -3 62 -1 14 -62 33 -107 33 -40 0 -68 28
-89 90 -34 104 -94 184 -137 185 -28 0 -62 82 -84 198 -29 152 -32 172 -39
244 -4 40 -8 85 -11 100 -2 15 -6 143 -9 283 l-5 256 77 41 c63 33 304 123
373 138 8 2 87 29 175 60 88 31 270 92 405 137 217 71 352 119 415 148 97 43
207 60 435 65 148 3 157 5 205 31 67 37 149 123 281 294 60 78 155 201 212
273 121 154 204 272 293 417 80 131 87 142 95 160 4 8 17 31 30 51 12 19 50
91 84 160 77 152 99 189 111 189 6 0 58 -39 115 -87z m1184 -3628 c0 -28 -5
-37 -29 -50 -26 -13 -29 -20 -28 -56 2 -31 -3 -44 -15 -50 -10 -5 -26 -13 -35
-18 -12 -5 -19 -22 -21 -52 -2 -36 -9 -50 -39 -76 -49 -44 -57 -42 -49 14 l6
48 -46 -50 c-25 -28 -43 -42 -40 -32 3 10 8 50 12 90 3 40 10 89 15 111 9 34
12 36 23 20 9 -12 15 -14 20 -6 4 7 18 12 31 12 12 0 26 7 29 16 4 9 13 14 21
10 8 -3 15 -1 15 4 0 6 7 10 15 10 8 0 15 4 15 9 0 14 71 81 86 81 9 0 14 -12
14 -35z m87 -162 c-4 -82 -6 -163 -7 -180 0 -45 -16 -42 -24 5 -4 20 -16 63
-28 95 l-21 58 22 39 c11 21 21 45 21 54 0 19 27 76 36 76 3 0 4 -66 1 -147z
m-1106 102 c41 -41 44 -58 48 -247 2 -101 -1 -148 -8 -148 -6 0 -11 8 -12 18
-1 9 -2 36 -4 59 -1 23 -8 55 -14 71 -8 19 -11 60 -8 109 2 43 0 88 -4 98 -7
17 -8 18 -8 3 -1 -28 -18 -21 -25 10 -4 15 -9 35 -12 45 -8 27 10 20 47 -18z
m4279 -11 c12 -36 22 -83 24 -119 1 -16 -6 -21 -37 -23 l-38 -3 6 78 c4 43 8
84 10 91 8 23 23 12 35 -24z m-529 -167 c-6 -6 -11 -7 -12 -1 -6 56 -5 71 5
83 9 11 12 5 14 -29 2 -23 -2 -48 -7 -53z m-2719 -90 c0 -26 -6 -54 -12 -62
-14 -17 -85 -20 -95 -5 -13 21 7 70 48 115 40 46 41 47 49 24 5 -13 9 -45 10
-72z m-1643 -91 c12 -64 4 -87 -27 -81 -9 2 -20 4 -25 4 -4 1 -5 13 -1 29 8
34 36 113 40 110 1 -2 7 -30 13 -62z m516 -16 c-3 -6 -10 -10 -16 -10 -10 0
-12 33 -2 44 9 9 26 -22 18 -34z m880 30 c3 -5 -1 -10 -9 -10 -9 0 -16 5 -16
10 0 6 4 10 9 10 6 0 13 -4 16 -10z m-4835 -99 c16 -32 12 -62 -10 -68 -24 -6
-24 -1 1 -52 14 -29 17 -47 11 -53 -16 -16 -32 0 -53 49 -26 60 -27 82 -5 116
21 32 41 35 56 8z m-2900 -1 c0 -6 12 -15 26 -21 l27 -10 -6 -122 c-8 -156
-14 -187 -38 -187 -31 0 -36 28 -38 193 -2 137 0 157 13 157 9 0 16 -5 16 -10z
m3003 -29 c25 -11 48 -24 52 -30 18 -30 -38 -128 -68 -119 -18 6 -36 66 -36
121 -1 26 1 47 3 47 2 0 24 -9 49 -19z m141 -36 c8 -22 -4 -73 -22 -87 -13
-11 -14 -10 -8 9 4 12 2 24 -4 28 -11 7 -14 48 -3 58 11 12 31 8 37 -8z m193
-20 c21 -7 -1 -59 -28 -66 -46 -13 -55 -9 -72 29 -9 21 -17 42 -17 46 0 6 89
-1 117 -9z m-5636 -12 c6 -68 5 -332 -1 -348 -7 -19 -7 -19 -17 0 -6 11 -15
43 -22 70 -6 28 -19 67 -27 87 -16 35 -15 39 5 80 11 25 21 52 21 61 0 22 21
67 32 67 4 0 9 -8 9 -17z m3197 -139 c5 -45 -8 -57 -53 -50 -18 3 -20 10 -18
86 1 46 5 91 9 99 9 22 55 -79 62 -135z m508 85 c7 -51 7 -46 5 -81 -1 -24 -5
-28 -31 -28 -23 0 -30 4 -30 20 0 11 4 28 9 38 5 9 15 36 22 60 7 23 14 41 16
39 2 -2 6 -24 9 -48z m-1939 -26 c22 -76 21 -73 28 -112 4 -20 2 -44 -6 -58
-13 -25 -33 -26 -35 -2 -2 32 -5 37 -23 42 -12 3 -18 12 -16 28 1 13 6 54 10
92 3 37 11 67 16 67 4 0 16 -26 26 -57z m3963 47 c0 -5 -4 -10 -10 -10 -5 0
-10 5 -10 10 0 6 5 10 10 10 6 0 10 -4 10 -10z m-3720 -10 c0 -5 -2 -10 -4
-10 -3 0 -8 5 -11 10 -3 6 -1 10 4 10 6 0 11 -4 11 -10z m3101 -3 c-1 -4 -1
-14 -1 -22 0 -8 -4 -15 -10 -15 -5 0 -10 12 -10 26 0 14 5 24 11 22 6 -2 10
-7 10 -11z m-894 -39 c-3 -7 -5 -2 -5 12 0 14 2 19 5 13 2 -7 2 -19 0 -25z
m-1570 -60 c-3 -8 -6 -5 -6 6 -1 11 2 17 5 13 3 -3 4 -12 1 -19z m-458 -76 c1
-13 -3 -20 -9 -17 -5 3 -10 23 -9 43 0 30 2 33 9 17 5 -11 9 -30 9 -43z
m-2270 -84 c1 -55 -23 -81 -66 -69 -58 16 -51 72 16 138 l36 35 6 -29 c4 -15
7 -49 8 -75z m-1638 -95 c3 -56 1 -62 -18 -58 -10 2 -23 4 -30 4 -14 1 -10 27
14 89 14 38 18 42 24 24 4 -11 9 -38 10 -59z m509 11 c0 -14 -4 -23 -10 -19
-5 3 -10 15 -10 26 0 10 5 19 10 19 6 0 10 -12 10 -26z"/>
<path d="M13695 4366 c-16 -7 -39 -23 -49 -35 l-20 -21 37 5 c20 3 53 7 72 10
50 7 108 33 100 45 -9 14 -104 12 -140 -4z"/>
<path d="M9818 3899 c-24 -13 -24 -86 -1 -119 10 -14 37 -45 61 -69 33 -34 46
-41 52 -31 9 15 -22 135 -51 191 -20 40 -32 46 -61 28z"/>
<path d="M2510 5620 c0 -10 -57 -40 -64 -33 -3 3 -6 2 -6 -4 0 -13 24 -23 55
-23 32 0 116 28 134 45 11 11 5 14 -35 18 -58 7 -84 6 -84 -3z"/>
<path d="M7145 4650 c91 -92 130 -114 151 -85 20 27 17 40 -16 78 -34 39 -103
72 -170 81 l-45 6 80 -80z"/>
<path d="M1576 4353 c2 -98 3 -106 14 -123 14 -23 21 -7 27 67 5 72 -7 123
-30 123 -10 0 -13 -17 -11 -67z"/>
<path d="M5341 3809 c-59 -26 -52 -40 19 -38 63 2 123 24 117 43 -6 18 -93 15
-136 -5z"/>
<path d="M6540 3690 c-8 -6 -46 -20 -85 -32 -125 -38 -306 -131 -319 -163 -4
-12 106 4 120 18 4 4 15 7 24 7 19 0 136 59 200 100 25 17 60 37 78 45 18 9
30 20 27 25 -8 13 -26 12 -45 0z"/>
<path d="M1240 3629 c-30 -15 -69 -30 -87 -33 -77 -10 -248 -115 -225 -138 21
-21 107 -10 171 21 95 46 211 138 211 168 0 17 -6 16 -70 -18z"/>
<path d="M8017 3597 c-75 -24 -148 -107 -79 -91 57 13 148 76 137 95 -7 11
-10 11 -58 -4z"/>
<path d="M2043 3443 c-7 -3 -13 -18 -13 -34 0 -63 80 -75 193 -28 69 30 75 36
42 49 -29 11 -201 21 -222 13z"/>
</g>
</svg>
